<?xml version="1.0" encoding="utf-8"?>
<!-- Generator: Adobe Illustrator 21.1.0, SVG Export Plug-In . SVG Version: 6.00 Build 0)  -->
<svg version="1.1" id="Layer_1" xmlns="http://www.w3.org/2000/svg" xmlns:xlink="http://www.w3.org/1999/xlink" x="0px" y="0px"
	 viewBox="0 0 14 14" style="enable-background:new 0 0 14 14;" xml:space="preserve">
<style type="text/css">
	.st0{fill:#292929;}
</style>
<path class="st0" d="M11.7,7c-0.1-0.1-0.1-0.1-0.2-0.2C9.6,5,7.8,3.1,6,1.3C5.8,1.1,5.7,0.8,5.8,0.6C5.8,0.3,6,0.1,6.3,0
	C6.6,0,6.8,0,7,0.3C7.4,0.6,7.8,1,8.1,1.3c1.7,1.7,3.4,3.4,5,5c0.3,0.3,0.3,0.6,0.2,0.9c0,0.1-0.1,0.2-0.2,0.3c-1.3,1.3-2.7,2.7-4,4
	C8.5,12.3,7.8,13,7,13.8c-0.4,0.4-1,0.3-1.2-0.1C5.7,13.3,5.7,13,6,12.7c0.3-0.3,0.5-0.5,0.8-0.8C8.4,10.3,10,8.7,11.7,7
	C11.6,7,11.6,7,11.7,7z"/>
<path class="st0" d="M6.5,7C6.5,6.9,6.4,6.9,6.3,6.8C4.5,5,2.7,3.1,0.8,1.3C0.6,1.1,0.5,0.8,0.6,0.6C0.7,0.3,0.9,0.1,1.1,0
	C1.4,0,1.7,0,1.9,0.3C2.3,0.6,2.6,1,3,1.3c1.7,1.7,3.4,3.4,5,5C8.3,6.6,8.3,7,8.2,7.3c0,0.1-0.1,0.2-0.2,0.3c-1.3,1.3-2.7,2.7-4,4
	c-0.7,0.7-1.5,1.4-2.2,2.2c-0.4,0.4-1,0.3-1.2-0.1c-0.2-0.3-0.1-0.7,0.1-0.9c0.3-0.3,0.5-0.5,0.8-0.8C3.2,10.3,4.8,8.7,6.5,7
	C6.5,7,6.5,7,6.5,7z"/>
</svg>
