<?xml version="1.0" encoding="utf-8"?>
<!-- Generator: Adobe Illustrator 21.1.0, SVG Export Plug-In . SVG Version: 6.00 Build 0)  -->
<svg version="1.1" id="Layer_1" xmlns="http://www.w3.org/2000/svg" xmlns:xlink="http://www.w3.org/1999/xlink" x="0px" y="0px"
	 viewBox="0 0 18 14" style="enable-background:new 0 0 18 14;" xml:space="preserve">
<style type="text/css">
	.st0{fill:#292929;}
</style>
<path class="st0" d="M6.9,7C7,6.9,7,6.9,7.1,6.8c1.8-1.8,3.7-3.7,5.5-5.5c0.2-0.2,0.3-0.5,0.2-0.8c-0.1-0.3-0.3-0.5-0.5-0.5
	C12,0,11.7,0,11.5,0.3c-0.4,0.4-0.7,0.7-1.1,1.1c-1.7,1.7-3.4,3.4-5,5C5.1,6.6,5.1,7,5.2,7.3c0,0.1,0.1,0.2,0.2,0.3
	c1.3,1.3,2.7,2.7,4,4c0.7,0.7,1.5,1.4,2.2,2.2c0.4,0.4,1,0.3,1.2-0.1c0.2-0.3,0.1-0.7-0.1-0.9c-0.3-0.3-0.5-0.5-0.8-0.8
	C10.2,10.3,8.6,8.7,6.9,7C6.9,7,6.9,7,6.9,7z"/>
<path class="st0" d="M1.7,7c0.1-0.1,0.1-0.1,0.2-0.2C3.8,5,5.6,3.1,7.5,1.3c0.2-0.2,0.3-0.5,0.2-0.8C7.6,0.3,7.4,0.1,7.1,0
	C6.8,0,6.6,0,6.4,0.3C6,0.6,5.7,1,5.3,1.3c-1.7,1.7-3.4,3.4-5,5C0,6.6,0,7,0,7.3c0,0.1,0.1,0.2,0.2,0.3c1.3,1.3,2.7,2.7,4,4
	c0.7,0.7,1.5,1.4,2.2,2.2c0.4,0.4,1,0.3,1.2-0.1c0.2-0.3,0.1-0.7-0.1-0.9c-0.3-0.3-0.5-0.5-0.8-0.8C5,10.3,3.4,8.7,1.7,7
	C1.8,7,1.8,7,1.7,7z"/>
<path class="st0" d="M12,7c0.1-0.1,0.1-0.1,0.2-0.2c1.8-1.8,3.7-3.7,5.5-5.5C18,1.1,18,0.8,18,0.6c-0.1-0.3-0.3-0.5-0.5-0.5
	c-0.3-0.1-0.5,0-0.7,0.2C16.3,0.6,16,1,15.6,1.3c-1.7,1.7-3.4,3.4-5,5c-0.3,0.3-0.3,0.6-0.2,0.9c0,0.1,0.1,0.2,0.2,0.3
	c1.3,1.3,2.7,2.7,4,4c0.7,0.7,1.5,1.4,2.2,2.2c0.4,0.4,1,0.3,1.2-0.1c0.2-0.3,0.1-0.7-0.1-0.9c-0.3-0.3-0.5-0.5-0.8-0.8
	C15.3,10.3,13.7,8.7,12,7C12.1,7,12.1,7,12,7z"/>
</svg>
