<?xml version="1.0" encoding="utf-8"?>
<!-- Generator: Adobe Illustrator 21.1.0, SVG Export Plug-In . SVG Version: 6.00 Build 0)  -->
<svg version="1.1" id="Layer_1" xmlns="http://www.w3.org/2000/svg" xmlns:xlink="http://www.w3.org/1999/xlink" x="0px" y="0px"
	 viewBox="0 0 18 14" style="enable-background:new 0 0 18 14;" xml:space="preserve">
<style type="text/css">
	.st0{fill:#292929;}
</style>
<path class="st0" d="M11.1,7C11,6.9,11,6.9,10.9,6.8C9.1,5,7.2,3.1,5.4,1.3C5.2,1.1,5.1,0.8,5.2,0.6C5.3,0.3,5.4,0.1,5.7,0
	C6,0,6.3,0,6.5,0.3C6.8,0.6,7.2,1,7.6,1.3c1.7,1.7,3.4,3.4,5,5c0.3,0.3,0.3,0.6,0.2,0.9c0,0.1-0.1,0.2-0.2,0.3c-1.3,1.3-2.7,2.7-4,4
	c-0.7,0.7-1.5,1.4-2.2,2.2c-0.4,0.4-1,0.3-1.2-0.1c-0.2-0.3-0.1-0.7,0.1-0.9c0.3-0.3,0.5-0.5,0.8-0.8C7.8,10.3,9.4,8.7,11.1,7
	C11.1,7,11.1,7,11.1,7z"/>
<path class="st0" d="M16.3,7c-0.1-0.1-0.1-0.1-0.2-0.2c-1.8-1.8-3.7-3.7-5.5-5.5c-0.2-0.2-0.3-0.5-0.2-0.8c0.1-0.3,0.3-0.5,0.5-0.5
	c0.3-0.1,0.5,0,0.7,0.2C12,0.6,12.3,1,12.7,1.3c1.7,1.7,3.4,3.4,5,5C18,6.6,18,7,18,7.3c0,0.1-0.1,0.2-0.2,0.3c-1.3,1.3-2.7,2.7-4,4
	c-0.7,0.7-1.5,1.4-2.2,2.2c-0.4,0.4-1,0.3-1.2-0.1c-0.2-0.3-0.1-0.7,0.1-0.9c0.3-0.3,0.5-0.5,0.8-0.8C13,10.3,14.6,8.7,16.3,7
	C16.2,7,16.2,7,16.3,7z"/>
<path class="st0" d="M6,7C5.9,6.9,5.8,6.9,5.8,6.8C3.9,5,2.1,3.1,0.3,1.3C0,1.1,0,0.8,0,0.6C0.1,0.3,0.3,0.1,0.6,0
	C0.9,0,1.1,0,1.3,0.3C1.7,0.6,2,1,2.4,1.3c1.7,1.7,3.4,3.4,5,5C7.7,6.6,7.8,7,7.7,7.3c0,0.1-0.1,0.2-0.2,0.3c-1.3,1.3-2.7,2.7-4,4
	C2.8,12.3,2,13,1.3,13.8c-0.4,0.4-1,0.3-1.2-0.1C-0.1,13.3,0,13,0.2,12.7c0.3-0.3,0.5-0.5,0.8-0.8C2.7,10.3,4.3,8.7,6,7
	C5.9,7,5.9,7,6,7z"/>
</svg>
