<?xml version="1.0" encoding="utf-8"?>
<!-- Generator: Adobe Illustrator 21.1.0, SVG Export Plug-In . SVG Version: 6.00 Build 0)  -->
<svg version="1.1" id="Layer_1" xmlns="http://www.w3.org/2000/svg" xmlns:xlink="http://www.w3.org/1999/xlink" x="0px" y="0px"
	 viewBox="0 0 14 14" style="enable-background:new 0 0 14 14;" xml:space="preserve">
<style type="text/css">
	.st0{fill:#292929;}
</style>
<path class="st0" d="M9.1,7C9,6.9,9,6.9,8.9,6.8C7.1,5,5.2,3.1,3.4,1.3C3.2,1.1,3.1,0.8,3.2,0.6C3.3,0.3,3.4,0.1,3.7,0
	C4,0,4.3,0,4.5,0.3C4.8,0.6,5.2,1,5.6,1.3c1.7,1.7,3.4,3.4,5,5c0.3,0.3,0.3,0.6,0.2,0.9c0,0.1-0.1,0.2-0.2,0.3c-1.3,1.3-2.7,2.7-4,4
	c-0.7,0.7-1.5,1.4-2.2,2.2c-0.4,0.4-1,0.3-1.2-0.1c-0.2-0.3-0.1-0.7,0.1-0.9c0.3-0.3,0.5-0.5,0.8-0.8C5.8,10.3,7.4,8.7,9.1,7
	C9.1,7,9.1,7,9.1,7z"/>
</svg>
