<?xml version="1.0" encoding="utf-8"?>
<!-- Generator: Adobe Illustrator 21.1.0, SVG Export Plug-In . SVG Version: 6.00 Build 0)  -->
<svg version="1.1" id="Layer_1" xmlns="http://www.w3.org/2000/svg" xmlns:xlink="http://www.w3.org/1999/xlink" x="0px" y="0px"
	 viewBox="0 0 14 14" style="enable-background:new 0 0 14 14;" xml:space="preserve">
<style type="text/css">
	.st0{fill:#292929;}
</style>
<path class="st0" d="M2.3,7c0.1-0.1,0.1-0.1,0.2-0.2C4.4,5,6.2,3.1,8,1.3c0.2-0.2,0.3-0.5,0.2-0.8C8.2,0.3,8,0.1,7.7,0
	C7.4,0,7.2,0,7,0.3C6.6,0.6,6.2,1,5.9,1.3c-1.7,1.7-3.4,3.4-5,5C0.6,6.6,0.5,7,0.6,7.3c0,0.1,0.1,0.2,0.2,0.3c1.3,1.3,2.7,2.7,4,4
	C5.5,12.3,6.2,13,7,13.8c0.4,0.4,1,0.3,1.2-0.1C8.3,13.3,8.3,13,8,12.7c-0.3-0.3-0.5-0.5-0.8-0.8C5.6,10.3,4,8.7,2.3,7
	C2.4,7,2.4,7,2.3,7z"/>
<path class="st0" d="M7.5,7c0.1-0.1,0.1-0.1,0.2-0.2c1.8-1.8,3.7-3.7,5.5-5.5c0.2-0.2,0.3-0.5,0.2-0.8c-0.1-0.3-0.3-0.5-0.5-0.5
	c-0.3-0.1-0.5,0-0.7,0.2C11.7,0.6,11.4,1,11,1.3C9.3,3,7.7,4.7,6,6.4C5.7,6.6,5.7,7,5.8,7.3c0,0.1,0.1,0.2,0.2,0.3
	c1.3,1.3,2.7,2.7,4,4c0.7,0.7,1.5,1.4,2.2,2.2c0.4,0.4,1,0.3,1.2-0.1c0.2-0.3,0.1-0.7-0.1-0.9c-0.3-0.3-0.5-0.5-0.8-0.8
	C10.8,10.3,9.2,8.7,7.5,7C7.5,7,7.5,7,7.5,7z"/>
</svg>
