<?xml version="1.0" encoding="utf-8"?>
<!-- Generator: Adobe Illustrator 21.1.0, SVG Export Plug-In . SVG Version: 6.00 Build 0)  -->
<svg version="1.1" id="Layer_1" xmlns="http://www.w3.org/2000/svg" xmlns:xlink="http://www.w3.org/1999/xlink" x="0px" y="0px"
	 viewBox="0 0 14 14" style="enable-background:new 0 0 14 14;" xml:space="preserve">
<style type="text/css">
	.st0{fill:#292929;}
</style>
<path class="st0" d="M4.9,7C5,6.9,5,6.9,5.1,6.8C6.9,5,8.8,3.1,10.6,1.3c0.2-0.2,0.3-0.5,0.2-0.8c-0.1-0.3-0.3-0.5-0.5-0.5
	C10,0,9.7,0,9.5,0.3C9.2,0.6,8.8,1,8.4,1.3c-1.7,1.7-3.4,3.4-5,5C3.1,6.6,3.1,7,3.2,7.3c0,0.1,0.1,0.2,0.2,0.3c1.3,1.3,2.7,2.7,4,4
	c0.7,0.7,1.5,1.4,2.2,2.2c0.4,0.4,1,0.3,1.2-0.1c0.2-0.3,0.1-0.7-0.1-0.9c-0.3-0.3-0.5-0.5-0.8-0.8C8.2,10.3,6.6,8.7,4.9,7
	C4.9,7,4.9,7,4.9,7z"/>
</svg>
