<svg xmlns="http://www.w3.org/2000/svg" viewBox="0 0 300 300"><defs><style>.a{fill:#f1cdb3;}</style></defs><title>up-btn</title><path class="a" d="M253.14,240.9c-.31,17-4.35,31.22-13.29,43.8a33.79,33.79,0,0,1-18.66,13.41,25.15,25.15,0,0,1-16.94-1.34c-5.48-2.31-10.81-5-16.18-7.57a91.11,91.11,0,0,0-24-8.13,73,73,0,0,0-19.36-1c-4.27.41-8.55.94-12.76,1.77A80.56,80.56,0,0,0,113,288.58c-4.95,2.35-9.83,4.84-14.81,7.13a33,33,0,0,1-11.85,3.2c-6.49.38-12.21-1.76-17.46-5.41A43,43,0,0,1,55.2,277.26a76.88,76.88,0,0,1-8-25.42C45.21,236,48.32,221,55.79,207A104.64,104.64,0,0,1,78,178.71a134.38,134.38,0,0,1,39.73-25.09,106.27,106.27,0,0,1,21.93-6.46,60.76,60.76,0,0,1,24.11.75,124.19,124.19,0,0,1,40.51,17.42c13.7,8.84,25.51,19.69,34.63,33.31a80.51,80.51,0,0,1,13,31.56C252.66,234.27,252.88,238.41,253.14,240.9Z"/><path class="a" d="M157.82,58.34c.25-5.44.44-12.36.91-19.27.58-8.51,1.36-17,3.73-25.26,1.23-4.3,3.36-8,7.21-10.5,4.59-2.95,9.45-2.81,14.39-1a35.83,35.83,0,0,1,11.2,6.93A86.84,86.84,0,0,1,222.64,54a86.62,86.62,0,0,1,2.84,26.23c-.51,10.13-2.72,19.81-8.58,28.33a32,32,0,0,1-16.46,12.74c-8.3,2.77-15.85,1-22.68-4.11-7.53-5.65-12.09-13.44-15.31-22.11a78.32,78.32,0,0,1-4.64-25.8C157.76,66.1,157.82,63,157.82,58.34Z"/><path class="a" d="M141.85,58.1c0,4.05.13,8.11,0,12.16-.46,12.09-2.9,23.69-9,34.28-3.52,6.08-8,11.32-14.22,14.78-8.12,4.51-16.24,4.21-24.28-.23-7.29-4-12.21-10.18-15.47-17.72-3.67-8.49-4.88-17.44-4.67-26.62a91.67,91.67,0,0,1,10-39.62A81.88,81.88,0,0,1,107.4,6.88a28.87,28.87,0,0,1,11.2-5.48,15,15,0,0,1,17,8.33A48,48,0,0,1,139.21,23C141,34.61,141.51,46.35,141.85,58.1Z"/><path class="a" d="M288.82,141.06c-.06,9.29-1.16,18.41-4.64,27.12-2.62,6.57-6.34,12.38-12.05,16.71a23.45,23.45,0,0,1-15.39,5.1,24.6,24.6,0,0,1-14-5.4c-9.5-7.12-15.15-16.65-17.68-28.13a67.88,67.88,0,0,1-.92-23.07,134.16,134.16,0,0,1,16.59-49.73A36.82,36.82,0,0,1,249.35,73,13.19,13.19,0,0,1,256,69.81a14.71,14.71,0,0,1,7.3,1.29,24.82,24.82,0,0,1,10.11,7.46A47,47,0,0,1,281,92.06a89.18,89.18,0,0,1,5.07,19.57c1,7.32,1.72,14.68,2.42,22,.23,2.45,0,4.93,0,7.4Z"/><path class="a" d="M76.06,142.43a57.75,57.75,0,0,1-4.54,23.66c-3.91,9-10,16.29-18.6,21s-17,3.68-24.82-1.86c-6.17-4.35-10-10.5-12.72-17.4a62.85,62.85,0,0,1-4.31-22.06c-.09-5.44.12-10.89.44-16.32.27-4.51.76-9,1.39-13.5,1.49-10.62,3.76-21,8.83-30.63A31.51,31.51,0,0,1,32.42,73.07,20.74,20.74,0,0,1,42,69.74a11,11,0,0,1,7.37,2.48c4,2.9,6.79,6.81,9.27,11,6.74,11.3,11.08,23.56,14.37,36.22a82.65,82.65,0,0,1,2.68,16.29Q75.89,139.07,76.06,142.43Z"/></svg>